<?xml version="1.0" ?><svg data-name="Layer 1" id="Layer_1" viewBox="0 0 64 64" xmlns="http://www.w3.org/2000/svg"><defs><style>.cls-1{fill:#1c9699;}.cls-2{fill:#494035;}.cls-3{fill:#f2dbc0;}</style></defs><title/><path class="cls-1" d="M27,44H18a6,6,0,0,0-6,6V61H52V50a6,6,0,0,0-6-6H27Z"/><path class="cls-2" d="M22.787,33h0a10.971,10.971,0,0,1-.636-1.124c-.059-.118-.117-.236-.172-.356-.068-.152-.134-.3-.2-.46s-.122-.324-.178-.488c-.044-.126-.092-.25-.131-.379-.086-.285-.159-.575-.223-.869-.023-.107-.04-.214-.06-.322q-.064-.342-.106-.691c-.012-.1-.025-.206-.034-.31-.031-.33-.051-.663-.051-1V21h8.1a5,5,0,0,0,4.851-3.787L36,10l2.243,7.97A4,4,0,0,0,42.123,21H43v6c0,.338-.02.671-.051,1-.009.1-.022.207-.034.31q-.042.349-.106.691c-.02.108-.037.215-.06.322-.064.294-.137.585-.224.87-.038.128-.086.251-.129.377-.057.164-.115.328-.179.489s-.128.308-.2.46c-.055.12-.113.238-.172.356A10.971,10.971,0,0,1,41.213,33H43l.046-.083,2.745-4.941q.267-.48.5-.976t.429-.979A17.553,17.553,0,0,0,48,19.452C48,11.221,41.972,3.985,33.788,3.1A16,16,0,0,0,16,19l1.707,8q.236.495.5.976L20.444,32H15a3,3,0,0,0,0,6H14a6,6,0,0,0-.482,11.976S15,56,19,56h2c3.314,0,7-2.686,7-6s-3.686-6-7-6h6V37a8.579,8.579,0,0,1-3-2Z"/><path class="cls-3" d="M37,44V36.79h0a10.863,10.863,0,0,0,4.85-4.914c.059-.118.117-.236.172-.356q.1-.228.2-.46c.064-.161.122-.324.179-.489.043-.126.09-.25.129-.377.087-.285.161-.576.224-.87.023-.106.04-.215.06-.322.042-.228.078-.458.106-.691.012-.1.025-.206.034-.31.03-.33.051-.663.051-1V21h-.877a4,4,0,0,1-3.88-3.03L36,10l-2.053,7.213A5,5,0,0,1,29.1,21H21v6a10.991,10.991,0,0,0,6,9.79h0V43H23v1s3,0,4,2a7.74,7.74,0,0,1,1,3H40a5,5,0,0,0,5-5Z"/><path d="M46,43H38V37.376A12.079,12.079,0,0,0,41.727,34H43a1,1,0,0,0,.874-.514l2.572-4.63A20.341,20.341,0,0,0,49,19,17.01,17.01,0,0,0,25.382,3.336c-7.565,3.2-11.534,12.069-9.035,20.191L18.646,31H15a4,4,0,0,0-4,4,3.964,3.964,0,0,0,.79,2.363,6.993,6.993,0,0,0,1.279,13.568A7.006,7.006,0,0,0,20,57h2a7,7,0,0,0,0-14H19v2h3a5,5,0,0,1,0,10H20a5.009,5.009,0,0,1-4.9-4H20V49H14a5,5,0,0,1,0-10h6V37H15a2,2,0,0,1,0-4h5a1,1,0,0,0,.956-1.294l-.019-.059A12.067,12.067,0,0,0,26,37.376V44h2V38.3a11.779,11.779,0,0,0,8,0V44a1,1,0,0,0,1,1h6.858A4,4,0,0,1,40,48H31v2h9a6.006,6.006,0,0,0,5.91-5H46a5.006,5.006,0,0,1,5,5V60H13V57H11v4a1,1,0,0,0,1,1H52a1,1,0,0,0,1-1V50A7.008,7.008,0,0,0,46,43ZM18.258,22.939c-2.2-7.154,1.271-14.955,7.9-17.761A15.009,15.009,0,0,1,47,19a18.342,18.342,0,0,1-2.3,8.885l-1.022,1.838A11.924,11.924,0,0,0,44,27V22h1V20H42.123a3.006,3.006,0,0,1-2.918-2.3l-2.243-7.97A1,1,0,0,0,36,9h0a1,1,0,0,0-.962.726L32.977,16.97A4,4,0,0,1,29.1,20H19v2h1v5a11.974,11.974,0,0,0,.238,2.373ZM22,27V22h7.1a5.982,5.982,0,0,0,5.813-4.513l1.086-3.815,1.277,4.54A4.987,4.987,0,0,0,42,21.99V27a10,10,0,0,1-20,0Z"/><path d="M27,24.25A1.75,1.75,0,1,0,28.75,26,1.752,1.752,0,0,0,27,24.25ZM26.75,26a.25.25,0,0,1,.5,0C27.25,26.275,26.75,26.275,26.75,26Z"/><path d="M37,24.25A1.75,1.75,0,1,0,38.75,26,1.752,1.752,0,0,0,37,24.25ZM36.75,26a.25.25,0,0,1,.5,0C37.25,26.275,36.75,26.275,36.75,26Z"/><path d="M32,33.25A2.252,2.252,0,0,1,29.75,31h-1.5a3.75,3.75,0,0,0,7.5,0h-1.5A2.252,2.252,0,0,1,32,33.25Z"/></svg>